HIERARCHY
ROOT Hips
{
	OFFSET 0.000000 89.005402 0.000000
	CHANNELS 6 Xposition Yposition Zposition Xrotation Yrotation Zrotation
	JOINT Spine
	{
		OFFSET 0.116900 10.681000 0.373400
		CHANNELS 3 Xrotation Yrotation Zrotation
		JOINT Spine1
		{
			OFFSET 0.000000 13.840401 0.053500
			CHANNELS 3 Xrotation Yrotation Zrotation
			JOINT Spine2
			{
				OFFSET 0.000000 14.712700 -0.366200
				CHANNELS 3 Xrotation Yrotation Zrotation
				JOINT Neck
				{
					OFFSET 0.000000 35.415497 -3.314200
					CHANNELS 3 Xrotation Yrotation Zrotation
					JOINT Head
					{
						OFFSET 0.000000 16.899200 1.218300
						CHANNELS 3 Xrotation Yrotation Zrotation
						JOINT HeadTop_End
						{
							OFFSET 0.000000 22.206207 2.192500
							CHANNELS 3 Xrotation Yrotation Zrotation
							End Site
							{
								OFFSET 0.000000 22.314178 0.000000
							}
						}
					}
				}
				JOINT LeftShoulder
				{
					OFFSET 12.896400 26.716293 -4.548400
					CHANNELS 3 Xrotation Yrotation Zrotation
					JOINT LeftArm
					{
						OFFSET 19.027000 -4.857010 -1.718400
						CHANNELS 3 Xrotation Yrotation Zrotation
						JOINT LeftForeArm
						{
							OFFSET 24.179897 0.000000 0.000000
							CHANNELS 3 Xrotation Yrotation Zrotation
							JOINT LeftHand
							{
								OFFSET 27.156403 0.000000 0.000000
								CHANNELS 3 Xrotation Yrotation Zrotation
								JOINT LeftHandIndex1
								{
									OFFSET 16.441200 0.000000 0.000000
									CHANNELS 3 Xrotation Yrotation Zrotation
									JOINT LeftHandIndex2
									{
										OFFSET 4.821899 0.000000 0.000000
										CHANNELS 3 Xrotation Yrotation Zrotation
										JOINT LeftHandIndex3
										{
											OFFSET 6.386497 0.000000 0.000000
											CHANNELS 3 Xrotation Yrotation Zrotation
											JOINT LeftHandIndex4
											{
												OFFSET 5.188988 0.000000 0.000000
												CHANNELS 3 Xrotation Yrotation Zrotation
												End Site
												{
													OFFSET -0.178703 5.185913 0.000177
												}
											}
										}
									}
								}
								JOINT LeftHandThumb1
								{
									OFFSET 6.534897 -5.032593 5.900300
									CHANNELS 3 Xrotation Yrotation Zrotation
									JOINT LeftHandThumb2
									{
										OFFSET 3.818176 -2.204422 2.204423
										CHANNELS 3 Xrotation Yrotation Zrotation
										JOINT LeftHandThumb3
										{
											OFFSET 3.252098 -1.877594 1.877601
											CHANNELS 3 Xrotation Yrotation Zrotation
											JOINT LeftHandThumb4
											{
												OFFSET 5.251778 -3.032120 3.032117
												CHANNELS 3 Xrotation Yrotation Zrotation
												End Site
												{
													OFFSET 0.000023 6.780014 0.000000
												}
											}
										}
									}
								}
							}
						}
					}
				}
				JOINT RightShoulder
				{
					OFFSET -12.896300 26.716293 -4.548400
					CHANNELS 3 Xrotation Yrotation Zrotation
					JOINT RightArm
					{
						OFFSET -19.027000 -4.857010 -1.718400
						CHANNELS 3 Xrotation Yrotation Zrotation
						JOINT RightForeArm
						{
							OFFSET -24.179897 0.000000 0.000000
							CHANNELS 3 Xrotation Yrotation Zrotation
							JOINT RightHand
							{
								OFFSET -27.156403 0.000000 0.000000
								CHANNELS 3 Xrotation Yrotation Zrotation
								JOINT RightHandThumb1
								{
									OFFSET -6.591202 -4.852203 5.988100
									CHANNELS 3 Xrotation Yrotation Zrotation
									JOINT RightHandThumb2
									{
										OFFSET -3.818176 -2.204422 2.204423
										CHANNELS 3 Xrotation Yrotation Zrotation
										JOINT RightHandThumb3
										{
											OFFSET -3.252098 -1.877594 1.877601
											CHANNELS 3 Xrotation Yrotation Zrotation
											JOINT RightHandThumb4
											{
												OFFSET -5.251778 -3.032120 3.032117
												CHANNELS 3 Xrotation Yrotation Zrotation
												End Site
												{
													OFFSET -0.000023 6.780014 0.000000
												}
											}
										}
									}
								}
								JOINT RightHandIndex1
								{
									OFFSET -16.029404 0.000000 0.000000
									CHANNELS 3 Xrotation Yrotation Zrotation
									JOINT RightHandIndex2
									{
										OFFSET -5.213303 0.000000 0.000000
										CHANNELS 3 Xrotation Yrotation Zrotation
										JOINT RightHandIndex3
										{
											OFFSET -6.386528 0.000000 0.000000
											CHANNELS 3 Xrotation Yrotation Zrotation
											JOINT RightHandIndex4
											{
												OFFSET -5.189026 0.000000 0.000000
												CHANNELS 3 Xrotation Yrotation Zrotation
												End Site
												{
													OFFSET 0.236702 5.183624 0.001972
												}
											}
										}
									}
								}
							}
						}
					}
				}
			}
		}
	}
	JOINT LeftUpLeg
	{
		OFFSET 14.073000 -7.904099 -1.463000
		CHANNELS 3 Xrotation Yrotation Zrotation
		JOINT LeftLeg
		{
			OFFSET -0.109806 -34.073280 4.093200
			CHANNELS 3 Xrotation Yrotation Zrotation
			JOINT LeftFoot
			{
				OFFSET 0.109806 -29.899420 -6.319000
				CHANNELS 3 Xrotation Yrotation Zrotation
				JOINT LeftToeBase
				{
					OFFSET 1.551100 -14.988700 20.535801
					CHANNELS 3 Xrotation Yrotation Zrotation
					JOINT LeftToe_End
					{
						OFFSET 0.221200 0.570800 13.248301
						CHANNELS 3 Xrotation Yrotation Zrotation
						End Site
						{
							OFFSET 0.000000 13.262435 0.000000
						}
					}
				}
			}
		}
	}
	JOINT RightUpLeg
	{
		OFFSET -13.839300 -7.904099 -1.463000
		CHANNELS 3 Xrotation Yrotation Zrotation
		JOINT RightLeg
		{
			OFFSET 0.109694 -34.073219 4.093300
			CHANNELS 3 Xrotation Yrotation Zrotation
			JOINT RightFoot
			{
				OFFSET -0.109694 -29.899384 -6.319200
				CHANNELS 3 Xrotation Yrotation Zrotation
				JOINT RightToeBase
				{
					OFFSET -1.551100 -14.988700 20.535801
					CHANNELS 3 Xrotation Yrotation Zrotation
					JOINT RightToe_End
					{
						OFFSET -0.221200 0.570900 13.248299
						CHANNELS 3 Xrotation Yrotation Zrotation
						End Site
						{
							OFFSET 0.000000 13.262440 0.000000
						}
					}
				}
			}
		}
	}
}
MOTION
Frames: 5
Frame Time: 0.033333
18.337008 84.093704 0.070217 0.451423 -4.758052 -0.150077 4.622914 1.043714 -1.874573 1.795089 0.589913 1.448543 1.798195 0.722868 1.419466 -6.846895 -2.208890 0.852253 32.629555 1.029615 -1.280604 -0.000001 0.000000 -0.000000 2.356977 -23.876449 -6.081106 41.859388 -33.962962 -72.927699 -0.000028 -56.355488 -0.000027 22.481335 -7.133298 -5.264754 0.339547 4.671354 -7.844284 0.387041 2.823588 -20.566224 0.034625 0.816835 -10.169810 0.000000 -0.000000 -0.000001 18.491264 -0.461427 10.916074 1.284052 32.757615 -3.088966 2.117144 9.311161 -0.358625 0.000000 -0.000001 0.000000 4.100290 14.181923 7.077573 40.527481 53.682104 61.579722 0.000012 49.505614 -0.000007 26.174969 24.001295 16.058664 19.443786 -5.208087 -12.617402 0.398176 -30.470625 3.104478 3.736400 -15.760465 -0.044070 0.000001 -0.000002 0.000001 0.615114 -2.177907 24.117536 1.555110 -4.713712 42.758504 -0.186373 -0.357155 15.192607 -0.000003 -0.000001 0.000001 -17.458759 12.686137 5.588632 30.531922 7.743654 -1.162921 -13.558461 2.533297 -2.216308 -0.000189 0.000002 -0.000001 0.000000 0.000002 0.000000 -13.851025 -2.461222 -9.432428 29.581218 -8.929879 -7.003685 -16.575809 5.099760 8.932780 -9.068580 -0.000005 -0.000005 -0.000000 -0.000000 0.000001 
17.183964 84.315010 0.314323 0.258684 -5.155723 -0.619685 4.541206 1.140842 -1.536560 1.769428 0.629651 1.527537 1.771792 0.768400 1.497426 -7.044783 -2.089529 0.623497 32.256200 1.406254 -2.685860 -0.000003 -0.000000 -0.000000 2.392014 -23.838286 -5.935273 41.424148 -34.446949 -73.611544 0.000015 -55.356453 0.000003 22.357354 -7.646385 -4.408750 0.339579 4.671367 -7.844268 0.387039 2.823590 -20.566236 0.034632 0.816836 -10.169818 -0.000002 0.000001 0.000000 18.491287 -0.461408 10.916083 1.284046 32.757604 -3.088958 2.117136 9.311165 -0.358619 0.000000 -0.000000 0.000000 4.075432 14.316757 7.110931 41.019128 54.178198 61.236724 -0.000027 49.034642 0.000043 26.300986 24.120320 15.596066 19.443803 -5.208088 -12.617393 0.398172 -30.470632 3.104473 3.736379 -15.760458 -0.044081 -0.000001 0.000001 0.000000 0.615118 -2.177898 24.117531 1.555128 -4.713714 42.758514 -0.186367 -0.357143 15.192593 0.000002 -0.000000 -0.000000 -16.948262 12.562947 6.987596 29.979992 7.664970 -0.763637 -13.198903 2.825789 -3.569224 -0.000190 0.000002 -0.000000 0.000000 0.000002 0.000000 -12.639385 -4.032690 -9.188805 27.975044 -8.234433 -5.525191 -16.010337 5.696905 9.103708 -9.036957 0.000001 0.000002 0.000000 0.000000 0.000001 
15.919513 84.502228 0.510813 0.036043 -5.597067 -1.160732 4.502061 1.047306 -1.208833 1.758151 0.595870 1.614723 1.759303 0.739910 1.584108 -7.270315 -1.888331 0.400746 31.788698 2.048961 -4.296504 -0.000002 0.000000 -0.000000 2.424873 -23.812672 -5.790245 40.926306 -34.862150 -74.345284 -0.000001 -54.517685 -0.000021 22.000813 -8.071019 -3.793753 0.339562 4.671344 -7.844284 0.387046 2.823592 -20.566219 0.034633 0.816829 -10.169811 -0.000002 -0.000002 0.000001 18.491299 -0.461424 10.916088 1.284047 32.757601 -3.088965 2.117129 9.311169 -0.358634 -0.000001 0.000000 -0.000000 4.047549 14.455648 7.162187 41.742175 54.441836 60.620367 -0.000022 48.943295 0.000008 26.247601 24.107544 15.660058 19.443810 -5.208091 -12.617391 0.398126 -30.470604 3.104455 3.736395 -15.760469 -0.044076 0.000000 0.000002 -0.000001 0.615149 -2.177902 24.117531 1.555115 -4.713705 42.758521 -0.186383 -0.357139 15.192590 0.000001 -0.000000 0.000001 -16.501090 12.470956 8.535543 29.485490 7.595017 -0.246456 -12.795460 3.113788 -5.090087 0.000012 -0.000002 0.000004 0.000000 0.000000 0.000000 -11.805274 -4.572231 -8.092288 27.053911 -8.237060 -4.551243 -15.765489 6.593757 8.451306 -9.075710 0.000002 0.000004 -0.000000 0.000000 -0.000000 
14.587479 84.630791 0.656007 -0.149604 -5.902822 -1.722534 4.465322 0.737838 -0.877491 1.747691 0.473571 1.716468 1.747232 0.622421 1.686038 -7.527483 -1.604926 0.171542 31.231593 2.837324 -5.939594 0.000002 -0.000000 0.000000 2.426492 -23.861534 -5.749580 40.542152 -35.121738 -74.957904 0.000017 -54.040522 0.000025 21.232849 -8.306582 -3.536524 0.339568 4.671346 -7.844280 0.387038 2.823596 -20.566229 0.034629 0.816833 -10.169820 0.000000 0.000001 -0.000002 18.491286 -0.461415 10.916086 1.284048 32.757608 -3.088965 2.117146 9.311173 -0.358625 -0.000001 -0.000000 0.000000 4.049102 14.511973 7.063686 42.308702 54.435696 60.121360 -0.000011 49.225525 0.000012 26.065540 24.006474 16.548951 19.443803 -5.208088 -12.617402 0.398205 -30.470621 3.104493 3.736387 -15.760465 -0.044083 0.000000 -0.000002 0.000000 0.615123 -2.177894 24.117529 1.555127 -4.713721 42.758511 -0.186368 -0.357136 15.192600 -0.000000 -0.000001 0.000001 -16.250205 12.409001 10.155054 29.087641 7.411809 0.346297 -12.344727 3.340351 -6.658519 0.000005 0.000002 -0.000003 -0.000000 0.000002 -0.000000 -11.057234 -4.463318 -6.428877 26.636150 -8.462114 -4.061325 -15.863374 6.872419 7.316657 -9.112984 -0.000003 -0.000004 -0.000000 0.000001 0.000000 
13.230198 84.698349 0.773723 -0.219514 -5.941722 -2.283583 4.378908 0.251672 -0.523098 1.718896 0.277306 1.835024 1.716589 0.430789 1.805362 -7.821445 -1.268563 -0.073957 30.589422 3.601018 -7.464482 0.000001 0.000000 0.000000 2.382003 -24.009638 -5.869469 40.338141 -35.231499 -75.369430 -0.000021 -53.914313 -0.000029 20.075393 -8.306925 -3.588680 0.339578 4.671360 -7.844284 0.387027 2.823590 -20.566219 0.034647 0.816852 -10.169814 -0.000001 -0.000001 -0.000001 18.491294 -0.461406 10.916072 1.284032 32.757604 -3.088955 2.117152 9.311150 -0.358617 -0.000001 -0.000000 -0.000000 4.095693 14.436445 6.745770 42.449086 54.231139 60.014680 -0.000002 49.665608 0.000008 25.859166 23.963671 18.160585 19.443802 -5.208092 -12.617388 0.398159 -30.470611 3.104476 3.736385 -15.760469 -0.044074 -0.000000 0.000001 -0.000000 0.615136 -2.177910 24.117543 1.555131 -4.713713 42.758528 -0.186403 -0.357135 15.192584 -0.000002 -0.000000 0.000000 -16.300296 12.349287 11.820115 28.789702 7.035816 0.939151 -11.853963 3.452768 -8.166255 -0.000677 -0.000009 0.000000 -0.000000 -0.000002 -0.000000 -10.277741 -4.322673 -4.733912 26.257904 -8.630407 -3.592738 -16.064183 6.713973 6.201699 -9.076183 -0.000002 -0.000001 0.000001 -0.000000 -0.000000 
